# xmcd CD database file
#
# Track frame offsets:
#	150
#	12787
#	35624
#	56024
#	75899
#	90636
#	102223
#	115123
#	135560
#	148197
#	160009
#	181234
#	194996
#	208046
#
# Disc length: 2986 seconds
#
# Revision: 0
# Processed by: cddbd v1.5.2PL0 Copyright (c) Steve Scherf et al.
# Submitted via: CDex 1.51
#
DISCID=b90ba80e
DTITLE=Blaf - Rok
DYEAR=2012
DGENRE=Country
TTITLE0=Naladówka
TTITLE1=Luty
TTITLE2=Praga
TTITLE3=Wielkanoc
TTITLE4=Majówka
TTITLE5=Lopuchi
TTITLE6=Borówki
TTITLE7=Inwazyj
TTITLE8=Eroplan
TTITLE9=Octoberfest
TTITLE10=Tunelopad
TTITLE11=Miko³ajówki
TTITLE12=Nas to tu
TTITLE13=Szuka³ baby Blaf
EXTD=YEAR: 2012
EXTT0=
EXTT1=
EXTT2=
EXTT3=
EXTT4=
EXTT5=
EXTT6=
EXTT7=
EXTT8=
EXTT9=
EXTT10=
EXTT11=
EXTT12=
EXTT13=
PLAYORDER=
